<svg id="Layer_1" data-name="Layer 1" xmlns="http://www.w3.org/2000/svg" width="256" height="256" viewBox="0 0 256 256">
  <g id="Layer_1-2" data-name="Layer 1-2">
    <path d="M127.87,79.79a81.39,81.39,0,1,0,81.39,81.4C209.26,116.14,172.18,79.79,127.87,79.79Zm0,138.17a55.71,55.71,0,1,1,55.72-55.7A55.71,55.71,0,0,1,127.87,218Z" fill="#02bdf6"/>
    <path d="M211.06,39.1c-23.85-15-53-24.78-83.19-24.78S68.55,24.08,44.68,39.1a17.87,17.87,0,0,0-5.25,22.06L51,82.32c2.71,4.34,8.86,6.15,12.48,2.71,7.05-5.24,14.11-10.67,22.06-14.1a4.9,4.9,0,0,0,2.71-4.35V54.09c0-1.81.91-3.62,2.71-3.62a103.17,103.17,0,0,1,36.36-6.15h1.8a103.17,103.17,0,0,1,36.36,6.15c1.81,0,2.71,1.81,2.71,3.62V66.57a4.55,4.55,0,0,0,2.71,4.34c8,3.61,15,8.86,22.07,14.1,3.61,3.62,9.76,1.81,12.48-2.71L217,61.16C219.93,54.09,218.3,44.34,211.06,39.1Z" fill="#02bdf6"/>
    <circle cx="127.87" cy="161.35" r="30.02" fill="#02bdf6"/>
  </g>
</svg>
